<svg version="1.1" xmlns="http://www.w3.org/2000/svg" xmlns:xlink="http://www.w3.org/1999/xlink" width="400"
	height="400" viewBox="0, 0, 400,400">
	<g>
		<path
			d="M207.252 2.011 C 202.500 4.452,201.584 11.943,205.553 15.912 C 207.898 18.257,210.370 18.960,221.011 20.308 C 319.702 32.815,388.978 117.311,381.271 215.779 C 374.985 296.100,314.235 363.632,234.567 378.863 C 128.194 399.199,27.119 322.365,18.928 214.940 C 18.259 206.168,16.066 202.154,11.202 200.803 C 4.633 198.978,0.397 202.602,0.400 210.044 C 0.402 216.653,2.258 232.465,3.826 239.231 C 6.606 251.229,10.092 263.496,12.263 268.924 C 12.483 269.472,12.942 270.637,13.283 271.514 C 41.081 342.798,103.036 390.028,180.279 398.819 C 192.949 400.261,215.747 399.625,230.080 397.430 C 305.012 385.955,368.061 332.135,390.240 260.715 C 391.049 258.109,391.951 255.243,392.244 254.346 C 392.790 252.673,394.544 245.355,396.007 238.645 C 402.017 211.076,400.359 172.492,391.975 144.821 C 371.634 77.685,322.941 28.854,256.375 8.836 C 238.250 3.386,211.746 -0.297,207.252 2.011 M208.847 35.112 C 205.946 35.948,202.793 40.175,202.793 43.227 C 202.793 48.794,207.289 51.934,216.763 52.981 C 308.959 63.179,369.465 155.849,341.888 244.622 C 327.508 290.913,289.660 328.893,244.622 342.226 C 242.978 342.713,241.185 343.265,240.637 343.454 C 237.226 344.631,228.452 346.461,220.916 347.568 C 201.446 350.428,176.395 348.742,159.163 343.412 C 137.149 336.602,120.214 327.514,103.886 313.745 C 94.323 305.682,93.699 305.223,91.376 304.547 C 83.836 302.356,78.225 309.543,81.862 316.733 C 84.076 321.110,95.874 331.396,107.769 339.317 C 192.336 395.640,307.741 364.179,351.546 272.860 C 393.356 185.700,352.384 80.883,262.749 45.693 C 248.397 40.059,241.293 38.235,221.282 35.047 C 218.260 34.566,210.602 34.606,208.847 35.112 M209.151 68.313 C 203.137 70.261,200.938 77.036,204.866 81.511 C 207.135 84.094,208.753 84.657,219.721 86.680 C 252.211 92.673,281.374 111.939,297.383 137.988 C 298.077 139.116,299.043 140.667,299.531 141.434 C 316.214 167.678,320.385 206.529,309.817 237.251 C 294.459 281.896,258.196 310.333,209.511 315.910 C 199.893 317.012,196.764 318.725,195.614 323.520 C 193.929 330.546,200.002 334.777,210.425 333.836 C 286.433 326.976,341.339 258.601,331.493 183.068 C 324.898 132.463,289.666 89.689,241.283 73.546 C 227.502 68.948,213.986 66.747,209.151 68.313 M189.940 116.512 C 120.215 125.420,90.730 209.338,139.627 259.709 C 184.186 305.611,262.445 286.582,281.137 225.299 C 298.923 166.988,250.160 108.819,189.940 116.512 "
			stroke="none" fill="#0085ad" fill-rule="evenodd"></path>
	</g>
</svg>