<svg width="200" height="200" viewBox="0 0 880 880" xmlns="http://www.w3.org/2000/svg">
	<path data-name="Niva 1"
		d="M732.371 234.859c-13.68 9.477-190.09 132.813-201.554 136.462-26.06 8.739-44.234-12.66-44.234-28.104V189.93c0-16.74 12.29-37.5 23.786-44.93 11.496-7.429 181.936-120.627 200.859-133.465 22.87-14.44 40.965 1.153 40.965 21.143v162.537c0 19.182-7.907 31.63-19.822 39.644zM508.386 486.352c34.262-23.93 151.413-101.693 192.27-129.92 30.394-18.12 50.347.934 51.537 23.624v473.238c0 15.023-16.093 29.644-34.358 23.786-44.917-18.377-199.831-82.57-211.43-88.537-8.126-4.108-19.822-16.353-19.822-30.393V537.469c0-13.734 7.655-41.238 21.803-51.117zM350.474 744.936c-4.244 2.868-161.318 109.838-175.752 116.287-20.678 9.35-47.613-9.329-47.572-30.394V170.108c-.04-29.118 29.36-45.519 54.18-35.68 16.014 6.08 126.802 52.043 153.287 62.109 26.484 10.065 63.429 46.006 63.429 92.5v370.005c-.29 29.419-12.243 62.203-47.572 85.894z"
		fill="#35dd8e" />
</svg>