<svg width="107.5" height="150.06" viewBox="0 0 473 660.264" xmlns="http://www.w3.org/2000/svg">
	<path data-name="Niva 1"
		d="M458 173.263c-10.353 7.172-143.85 100.506-152.526 103.268-19.721 6.613-33.474-9.58-33.474-21.268v-116c0-12.667 9.3-28.378 18-34s137.68-91.285 152-101c17.307-10.927 31 .873 31 16v123c0 14.516-5.983 23.936-15 30zM288.5 363.58c25.927-18.11 114.581-76.956 145.5-98.317 23-13.712 38.1.707 39 17.878v358.122c0 11.369-12.178 22.433-26 18-33.991-13.907-151.222-62.484-160-67-6.149-3.11-15-12.375-15-23v-167c0-10.393 5.793-31.207 16.5-38.683zM169 559.263c-3.212 2.17-122.077 83.12-133 88-15.648 7.076-36.031-7.06-36-23v-500c-.031-22.035 22.218-34.446 41-27 12.119 4.6 95.958 39.383 116 47 20.042 7.617 48 34.815 48 70v280c-.219 22.263-9.265 47.072-36 65z"
		fill="#35dd8e" />
</svg>