<?xml version="1.0" encoding="UTF-8" standalone="no"?>
<svg
   width="200"
   height="200"
   viewBox="0 0 880 880"
   version="1.1"
   id="svg6"
   sodipodi:docname="niva-default-logo.svg"
   inkscape:version="1.2.2 (b0a84865, 2022-12-01)"
   inkscape:export-filename="niva-default-logo.png"
   inkscape:export-xdpi="96"
   inkscape:export-ydpi="96"
   xmlns:inkscape="http://www.inkscape.org/namespaces/inkscape"
   xmlns:sodipodi="http://sodipodi.sourceforge.net/DTD/sodipodi-0.dtd"
   xmlns="http://www.w3.org/2000/svg"
   xmlns:svg="http://www.w3.org/2000/svg">
  <defs
     id="defs10" />
  <sodipodi:namedview
     id="namedview8"
     pagecolor="#ffffff"
     bordercolor="#111111"
     borderopacity="1"
     inkscape:showpageshadow="0"
     inkscape:pageopacity="0"
     inkscape:pagecheckerboard="1"
     inkscape:deskcolor="#d1d1d1"
     showgrid="false"
     inkscape:zoom="1.18"
     inkscape:cx="62.288136"
     inkscape:cy="101.27119"
     inkscape:window-width="1028"
     inkscape:window-height="615"
     inkscape:window-x="1028"
     inkscape:window-y="687"
     inkscape:window-maximized="0"
     inkscape:current-layer="svg6" />
  <circle
     cx="440"
     cy="440"
     r="440"
     fill-opacity=".04"
     stroke-width="6.878"
     stroke="#000"
     stroke-opacity=".06"
     id="circle2" />
  <path
     data-name="Niva 1"
     d="m 615.76755,320.3348 c -8.55745,5.92814 -118.90164,83.07492 -126.07293,85.3579 -16.2999,5.46609 -27.6685,-7.91851 -27.6685,-17.57942 v -95.88175 c 0,-10.47012 7.68707,-23.45632 14.8782,-28.10327 7.19113,-4.64696 113.80172,-75.45316 125.63816,-83.48325 14.30539,-9.0319 25.62357,0.72159 25.62357,13.22507 v 101.66771 c 0,11.99845 -4.94535,19.78471 -12.3985,24.79701 z M 475.66447,477.64452 c 21.4304,-14.9683 94.70886,-63.60928 120.26548,-81.26557 19.01103,-11.33389 31.49219,0.58438 32.2361,14.77736 v 296.01176 c 0,9.39807 -10.06593,18.54238 -21.49074,14.87821 -28.095,-11.49507 -124.99508,-51.64721 -132.25069,-55.37998 -5.08256,-2.5698 -12.3985,-10.22877 -12.3985,-19.01104 V 509.6186 c 0,-8.59051 4.7883,-25.79467 13.63835,-31.97408 z m -98.77473,161.74507 c -2.65494,1.79448 -100.9048,68.70424 -109.93339,72.73788 -12.93412,5.84879 -29.7812,-5.83473 -29.75641,-19.01103 V 279.83303 c -0.0248,-18.2134 18.36467,-28.47193 33.88924,-22.31731 10.01799,3.80221 79.3157,32.55268 95.88176,38.84864 16.56605,6.29596 39.6752,28.77693 39.6752,57.85968 v 231.43871 c -0.18102,18.40186 -7.65814,38.90815 -29.7564,53.72684 z"
     fill-opacity="0.1"
     id="path4"
     style="stroke-width:0.826567" />
</svg>
