<svg width="520" height="80" version="1.1" id="prefix__svg8" xml:space="preserve" xmlns="http://www.w3.org/2000/svg">
	<path id="prefix__prefix__NivaDevtools"
		d="M704.766 580.272a2.376 2.376 0 01.647-1.756 2.544 2.544 0 011.879-.646 2.686 2.686 0 012.587 1.786l12.135 26.55a16.348 16.348 0 001.479 3.2 9.893 9.893 0 002.063 2.433 8.189 8.189 0 002.834 1.54 12.445 12.445 0 003.788.524q4.806 0 7.177-2.5a9.217 9.217 0 002.371-6.622v-33.2H734.4v32.895a2.29 2.29 0 01-.647 1.694 2.457 2.457 0 01-1.817.647 2.582 2.582 0 01-1.663-.493 3.634 3.634 0 01-.986-1.232l-12.135-26.55a13.908 13.908 0 00-3.542-5.636q-2.25-2.064-6.56-2.064-4.868 0-7.208 2.5a9.2 9.2 0 00-2.34 6.56v33.264h7.268v-32.894zm46.57.37v32.524h6.529v-32.524h-6.529zm0-12.259v7.577h6.591v-7.577h-6.591zm12.381 12.259l11.951 29.013a6.162 6.162 0 002.741 3.265 9.71 9.71 0 004.651.986 9.818 9.818 0 004.589-.955 6.562 6.562 0 002.864-3.3l12.567-29.013h-7.023l-11.273 26.122a1.692 1.692 0 01-1.724.986 1.527 1.527 0 01-1.6-.986l-10.842-26.118h-6.9zm46.507 0v6.283h19.466a4.918 4.918 0 013.85 1.293 4.678 4.678 0 011.14 3.2v2.464h-15.462a17.514 17.514 0 00-5.113.646 8.666 8.666 0 00-3.388 1.848 7 7 0 00-1.879 2.926 12.257 12.257 0 00-.585 3.943 10.026 10.026 0 002.557 7.269q2.555 2.649 8.346 2.648h15.216a12.778 12.778 0 003.357-.369 4.445 4.445 0 002.063-1.14 4.124 4.124 0 001.017-2 13.977 13.977 0 00.277-3.018V591.36a14.2 14.2 0 00-.616-4.25 8.568 8.568 0 00-2-3.419 9.305 9.305 0 00-3.542-2.249 14.918 14.918 0 00-5.174-.8h-19.53zm8.994 26.18a4.756 4.756 0 01-3.511-1.078 3.931 3.931 0 01-1.047-2.865 3.723 3.723 0 011.047-2.8 5.163 5.163 0 013.634-1.016h15.339v6.1a1.528 1.528 0 01-1.787 1.664h-13.675zm34.927-35.236q-3.45 0-3.45 3.388v34.8q0 3.389 3.45 3.388h14.661q9.177 0 13.952-5.112t4.774-15.647q0-10.595-4.774-15.708t-13.952-5.113h-14.661zm3.819 8.008a.682.682 0 01.8-.739h10.041q6.1 0 8.778 3.173t2.679 10.318q0 7.146-2.71 10.348t-8.747 3.2h-10.04a.682.682 0 01-.8-.74v-25.56zm48.418 1.048a14.848 14.848 0 00-5.2.8 9.34 9.34 0 00-3.512 2.249 8.557 8.557 0 00-2 3.419 14.167 14.167 0 00-.616 4.25v11.088a14.079 14.079 0 00.616 4.281 8.571 8.571 0 002 3.388 9.316 9.316 0 003.512 2.249 14.825 14.825 0 005.2.8h19.9v-6.344h-19.9a4.985 4.985 0 01-3.85-1.263 4.634 4.634 0 01-1.14-3.234v-2.341h15.462q5.974 0 8.5-2.433a9.177 9.177 0 002.525-6.93q0-4.743-2.587-7.361t-8.378-2.618h-10.532zm-4.99 10.78a4.669 4.669 0 011.14-3.2 4.915 4.915 0 013.85-1.293h10.472a4.8 4.8 0 013.511 1.109 4 4 0 011.109 2.956 3.769 3.769 0 01-1.078 2.834 5.283 5.283 0 01-3.727 1.047h-15.277v-3.449zm30.985-10.78l11.95 29.013a6.162 6.162 0 002.741 3.265 9.713 9.713 0 004.651.986 9.818 9.818 0 004.589-.955 6.563 6.563 0 002.865-3.3l12.566-29.013h-7.022l-11.273 26.122a1.694 1.694 0 01-1.725.986 1.528 1.528 0 01-1.6-.986l-10.841-26.118h-6.9zm41.948 0v6.283h4.436v15.03a21.893 21.893 0 00.554 5.359 8.018 8.018 0 001.725 3.45 6.487 6.487 0 002.987 1.848 14.971 14.971 0 004.343.554h5.852v-5.975h-4.5a4.531 4.531 0 01-3.357-1.047q-1.016-1.047-1.016-3.819v-15.4h8.993v-6.283h-8.993v-7.7h-6.591v7.7h-4.436zm38.935 0q-6.54 0-10.32 4-3.8 4.005-3.79 12.258t3.79 12.258q3.78 4 10.32 4h6.83c4.32 0 7.74-1.334 10.29-4s3.82-6.754 3.82-12.258q0-8.192-3.82-12.228c-2.55-2.689-5.97-4.034-10.29-4.034h-6.83zm6.22 6.283c2.83 0 4.9.78 6.19 2.341s1.94 4.107 1.94 7.638-.65 6.068-1.94 7.608-3.36 2.31-6.19 2.31h-5.61q-4.245 0-6.19-2.31t-1.94-7.608q0-5.3 1.94-7.638t6.19-2.341h5.61zm35.11-6.283q-6.525 0-10.32 4-3.78 4.005-3.79 12.258t3.79 12.258q3.8 4 10.32 4h6.84q6.465 0 10.28-4t3.82-12.258q0-8.192-3.82-12.228t-10.28-4.034h-6.84zm6.22 6.283c2.83 0 4.9.78 6.19 2.341s1.94 4.107 1.94 7.638-.64 6.068-1.94 7.608-3.36 2.31-6.19 2.31h-5.6c-2.84 0-4.9-.77-6.2-2.31s-1.94-4.076-1.94-7.608.65-6.077 1.94-7.638 3.36-2.341 6.2-2.341h5.6zm22.55-20.39v46.631h6.53v-46.631h-6.53zm24.94 14.107c-3.77 0-6.49.852-8.13 2.556a9.577 9.577 0 00-2.46 6.93 12.881 12.881 0 00.49 3.573 7.185 7.185 0 001.76 3.049 8.6 8.6 0 003.42 2.094 16.678 16.678 0 005.54.77h7.7a5.879 5.879 0 013.54.832 3.324 3.324 0 011.08 2.8 3.4 3.4 0 01-.99 2.741 5.042 5.042 0 01-3.26.832h-18.91v6.344h18.91a14.306 14.306 0 004.87-.739 8.932 8.932 0 003.32-2.033 7.662 7.662 0 001.88-3.11 12.9 12.9 0 00.59-3.974 12.464 12.464 0 00-.5-3.572 6.634 6.634 0 00-1.75-2.9 8.951 8.951 0 00-3.45-1.971 17.732 17.732 0 00-5.58-.739h-7.63c-1.81 0-3.03-.3-3.67-.893a3.4 3.4 0 01-.95-2.618 3.61 3.61 0 01.98-2.772 4.719 4.719 0 013.27-.924h17.98v-6.283h-18.05z"
		transform="translate(-615.33 -550.5)" fill="#333" fill-rule="evenodd" />
	<path data-name="Niva 1"
		d="M53.622 24.013c-1.064.737-14.778 10.325-15.67 10.61-2.025.679-3.438-.985-3.438-2.186V20.52c0-1.3.955-2.915 1.849-3.492.894-.578 14.144-9.378 15.615-10.376 1.778-1.123 3.185.09 3.185 1.643v12.636c0 1.492-.615 2.46-1.541 3.082zM36.209 43.565c2.663-1.86 11.771-7.906 14.947-10.1 2.363-1.41 3.914.072 4.007 1.836v36.79c0 1.169-1.251 2.305-2.671 1.85-3.492-1.429-15.535-6.42-16.437-6.883-.632-.32-1.541-1.272-1.541-2.363V47.539c0-1.068.595-3.206 1.695-3.974zM23.933 63.668c-.33.223-12.542 8.539-13.664 9.04-1.607.727-3.701-.725-3.698-2.363V18.98c-.003-2.263 2.282-3.538 4.212-2.773 1.245.472 9.858 4.046 11.917 4.828 2.059.783 4.93 3.577 4.93 7.191V56.99c-.022 2.287-.95 4.836-3.697 6.678z"
		fill="#35dd8e" id="prefix__path170" stroke-width=".103" />
</svg>