<svg width="119" height="119" xmlns="http://www.w3.org/2000/svg">
	<path fill="#fefffe"
		d="M49.216.001h21c31.333 1.334 47.667 17.667 49 49v21c-1.333 31.333-17.667 47.667-49 49h-21c-31.334-1.333-47.667-17.667-49-49v-21c1.333-31.333 17.666-47.666 49-49z"
		opacity=".981" />
	<path
		d="M86.2 41.56c-1.24.861-17.262 12.061-18.3 12.392a2.978 2.978 0 01-4.017-2.552V37.48a5.628 5.628 0 012.16-4.08c1.044-.675 16.52-10.954 18.24-12.12 2.08-1.311 3.72.105 3.72 1.92v14.76a4.05 4.05 0 01-1.803 3.6zM65.86 64.4c3.111-2.173 13.75-9.235 17.46-11.8 2.76-1.645 4.57.085 4.68 2.145V97.72a2.383 2.383 0 01-3.12 2.16c-4.08-1.669-18.147-7.5-19.2-8.04a3.448 3.448 0 01-1.8-2.76V69.04c0-1.247.695-3.74 1.98-4.64zM51.52 87.88c-.385.261-14.649 9.974-15.96 10.56a3.248 3.248 0 01-4.32-2.76v-60a3.543 3.543 0 014.92-3.24c1.454.553 11.515 4.726 13.92 5.64a9.617 9.617 0 015.76 8.4v33.6a9.234 9.234 0 01-4.32 7.8z"
		fill="#35dd8e" />
</svg>