<svg width="350" height="100" xmlns="http://www.w3.org/2000/svg">
	<path
		d="M122.158 35.389a3.389 3.389 0 01.924-2.508 3.634 3.634 0 012.684-.924 3.839 3.839 0 013.7 2.552l17.336 37.928a23.418 23.418 0 002.112 4.576 14.124 14.124 0 002.948 3.476 11.723 11.723 0 004.048 2.2 17.788 17.788 0 005.412.748q6.864 0 10.252-3.564a13.165 13.165 0 003.388-9.46V22.981h-10.475v46.992a3.272 3.272 0 01-.924 2.42 3.511 3.511 0 01-2.6.924 3.691 3.691 0 01-2.376-.7 5.188 5.188 0 01-1.408-1.76l-17.336-37.928a19.88 19.88 0 00-5.06-8.052q-3.213-2.947-9.372-2.948-6.952 0-10.3 3.564a13.139 13.139 0 00-3.344 9.372v47.52h10.384V35.389zm75.328.528v46.464h9.328V35.917h-9.327zm0-17.512v10.824h9.416V18.405h-9.415zm26.487 17.512l17.072 41.448a8.81 8.81 0 003.916 4.664 13.875 13.875 0 006.644 1.408 14.033 14.033 0 006.556-1.364 9.373 9.373 0 004.092-4.708l17.952-41.448h-10.032l-16.1 37.312a2.417 2.417 0 01-2.464 1.408 2.181 2.181 0 01-2.288-1.408l-15.488-37.312h-9.856zm75.239 0v8.976h27.808q3.871 0 5.5 1.848a6.676 6.676 0 011.628 4.576v3.52H312.06a25.007 25.007 0 00-7.3.924 12.34 12.34 0 00-4.84 2.64 9.983 9.983 0 00-2.684 4.18 17.479 17.479 0 00-.836 5.632q0 6.6 3.652 10.384t11.924 3.784h21.736a18.222 18.222 0 004.8-.528 6.348 6.348 0 002.948-1.628 5.893 5.893 0 001.452-2.86 19.986 19.986 0 00.4-4.312V51.229a20.283 20.283 0 00-.88-6.072 12.241 12.241 0 00-2.86-4.884 13.282 13.282 0 00-5.06-3.212 21.294 21.294 0 00-7.392-1.144h-27.9zm12.848 37.4q-3.52 0-5.016-1.54a5.617 5.617 0 01-1.5-4.092 5.319 5.319 0 011.5-4q1.5-1.452 5.192-1.452h21.912v8.712q0 2.376-2.552 2.376H312.06z"
		fill="#333" fill-rule="evenodd" />
	<path data-name="Niva 1"
		d="M70.559 28.313c-1.444 1-20.06 14.015-21.27 14.4-2.75.923-4.667-1.335-4.667-2.965V23.572c0-1.766 1.296-3.957 2.51-4.741C48.345 18.047 66.33 6.1 68.327 4.747c2.414-1.524 4.323.122 4.323 2.231V24.13c0 2.024-.834 3.338-2.091 4.183zm-23.637 26.54c3.616-2.526 15.978-10.732 20.29-13.71 3.207-1.913 5.313.098 5.438 2.492v49.94c0 1.585-1.698 3.127-3.625 2.51-4.74-1.94-21.088-8.714-22.312-9.344-.857-.433-2.091-1.725-2.091-3.207V60.247c0-1.45.807-4.352 2.3-5.395zM30.26 82.14c-.448.302-17.024 11.59-18.547 12.27-2.182.988-5.024-.983-5.02-3.206V21.48c-.004-3.072 3.098-4.803 5.717-3.765 1.69.642 13.381 5.492 16.176 6.554 2.795 1.063 6.694 4.855 6.694 9.762v39.045c-.03 3.104-1.292 6.564-5.02 9.064z"
		fill="#35dd8e" />
</svg>